<svg xmlns="http://www.w3.org/2000/svg" viewBox="0 0 153.82 138.5"><defs><style>.cls-1{fill:#e55b14;}</style></defs><title>Risorsa 1</title><g id="Livello_2" data-name="Livello 2"><g id="Livello_1-2" data-name="Livello 1"><path class="cls-1" d="M.09,125.62c0,3.45.19,6.61-.06,9.73-.22,2.64.78,3.15,3.22,3.15q57.38-.1,114.74-.07a44.08,44.08,0,0,0,7.44-.58,34.29,34.29,0,0,0,28.15-33.5,34.65,34.65,0,0,0-27.12-34.16c-1.4-.3-2.82-.51-4.23-.76a3,3,0,0,1,1.73-.72c8.54-1.41,15.88-5.15,21.38-11.85,9.17-11.14,11-23.72,5-36.72s-16.5-20-30.88-20C80.58-.08,41.67,0,2.76,0,2,0,1.15.14.3.2V12.75H116.69c1.58,0,3.17,0,4.74.13,11.7,1,20.8,12.41,19.27,24s-10.4,19.2-22.14,19.2H.29V82.25h3.4q56.49,0,113,0c1.59,0,3.18,0,4.75.11,11.5.94,20.76,12.35,19.32,23.77-1.47,11.61-10.37,19.47-22.17,19.48q-57.49,0-115,0ZM.24,39.16c.88.05,1.61.13,2.34.13H115c4.31,0,7-2.45,7.07-6.34s-2.66-6.43-7.2-6.43H3c-.89,0-1.77.08-2.71.13Zm0,69.6H114.48c.59,0,1.17,0,1.75,0a6.21,6.21,0,0,0,5.82-6.08c.17-4.13-2.54-6.67-7.22-6.67H2.84c-.87,0-1.75.11-2.62.16Z"/><path class="cls-1" d="M.09,125.62H3.58q57.5,0,115,0c11.8,0,20.7-7.87,22.17-19.48,1.44-11.42-7.82-22.83-19.32-23.77-1.57-.13-3.16-.11-4.75-.11q-56.49,0-113,0H.29V56.12H118.56c11.74,0,20.63-7.73,22.14-19.2s-7.57-23-19.27-24c-1.57-.14-3.16-.13-4.74-.13H.3V.2C1.15.14,2,0,2.76,0,41.67,0,80.58-.08,119.49.1c14.38.07,25,7.15,30.88,20s4.14,25.58-5,36.72c-5.5,6.7-12.84,10.44-21.38,11.85a3,3,0,0,0-1.73.72c1.41.25,2.83.46,4.23.76a34.65,34.65,0,0,1,27.12,34.16,34.29,34.29,0,0,1-28.15,33.5,44.08,44.08,0,0,1-7.44.58q-57.37,0-114.74.07C.81,138.5-.19,138,0,135.35.28,132.23.09,129.07.09,125.62Z"/><path class="cls-1" d="M.24,39.16V26.65c.94,0,1.82-.13,2.71-.13H114.86c4.54,0,7.25,2.43,7.2,6.43s-2.76,6.34-7.07,6.34H2.58C1.85,39.29,1.12,39.21.24,39.16Z"/><path class="cls-1" d="M.22,108.76V96.15C1.09,96.1,2,96,2.84,96h112c4.68,0,7.39,2.54,7.22,6.67a6.21,6.21,0,0,1-5.82,6.08c-.58.05-1.16,0-1.75,0H.22Z"/></g></g></svg>