<svg id="Livello_1" data-name="Livello 1" xmlns="http://www.w3.org/2000/svg" viewBox="0 0 389.12 139.2"><defs><style>.cls-1{fill:#e55b14;}.cls-2{fill:#003060;}</style></defs><title>logo</title><path class="cls-1" d="M70.59,469.58c0,3.46.2,6.61-.06,9.73-.21,2.64.79,3.16,3.23,3.15q57.36-.1,114.73-.07a43.11,43.11,0,0,0,7.45-.58,34.3,34.3,0,0,0,28.15-33.5A34.66,34.66,0,0,0,197,414.15c-1.4-.3-2.82-.5-4.22-.75a3,3,0,0,1,1.73-.73c8.54-1.4,15.87-5.15,21.38-11.85,9.16-11.14,11-23.71,5-36.71s-16.51-20-30.88-20.05c-38.91-.17-77.82-.06-116.73-.06-.81,0-1.62.11-2.47.17v12.54H187.19c1.58,0,3.17,0,4.75.13,11.7,1,20.8,12.41,19.27,24-1.51,11.46-10.41,19.19-22.14,19.2H70.8v26.13H187.18c1.58,0,3.17,0,4.75.11,11.5.94,20.76,12.35,19.31,23.77-1.46,11.62-10.36,19.48-22.16,19.48q-57.5,0-115,0Zm.16-86.46c.87.05,1.6.14,2.33.14H185.49c4.32,0,7-2.46,7.08-6.35s-2.66-6.43-7.21-6.43H73.45c-.88,0-1.76.08-2.7.13Zm0,69.6H185c.58,0,1.17,0,1.75,0a6.21,6.21,0,0,0,5.82-6.08c.17-4.13-2.54-6.67-7.23-6.67h-112c-.88,0-1.75.11-2.63.17Z" transform="translate(-70.51 -343.96)"/><path class="cls-1" d="M70.59,469.58h3.5q57.5,0,115,0c11.8,0,20.7-7.86,22.16-19.48,1.45-11.42-7.81-22.83-19.31-23.77-1.58-.12-3.17-.11-4.75-.11H70.8V400.08H189.07c11.73,0,20.63-7.74,22.14-19.2,1.53-11.62-7.57-23-19.27-24-1.58-.14-3.17-.13-4.75-.13H70.8V344.17c.85-.06,1.66-.17,2.47-.17,38.91,0,77.82-.11,116.73.06,14.37.07,24.95,7.16,30.88,20.05s4.13,25.57-5,36.71c-5.51,6.7-12.84,10.45-21.38,11.85a3,3,0,0,0-1.73.73c1.4.25,2.82.45,4.22.75a34.66,34.66,0,0,1,27.13,34.16,34.3,34.3,0,0,1-28.15,33.5,43.11,43.11,0,0,1-7.45.58q-57.36,0-114.73.07c-2.44,0-3.44-.51-3.23-3.15C70.79,476.19,70.59,473,70.59,469.58Z" transform="translate(-70.51 -343.96)"/><path class="cls-1" d="M70.75,383.12V370.61c.94-.05,1.82-.13,2.7-.13H185.36c4.55,0,7.26,2.44,7.21,6.43s-2.76,6.35-7.08,6.35H73.08C72.35,383.26,71.62,383.17,70.75,383.12Z" transform="translate(-70.51 -343.96)"/><path class="cls-1" d="M70.72,452.72v-12.6c.88-.06,1.75-.17,2.63-.17h112c4.69,0,7.4,2.54,7.23,6.67a6.21,6.21,0,0,1-5.82,6.08c-.58.05-1.17,0-1.75,0H70.72Z" transform="translate(-70.51 -343.96)"/><path class="cls-2" d="M269.62,483.16a28.86,28.86,0,0,1-27.46-17.11,42.26,42.26,0,0,1-3.8-18.34V446.3a42.26,42.26,0,0,1,3.8-18.34,30,30,0,0,1,10.8-12.6,32.35,32.35,0,0,1,33.19,0,30.07,30.07,0,0,1,10.79,12.57,42.18,42.18,0,0,1,3.81,18.37v1.41a42.41,42.41,0,0,1-3.81,18.4,28.7,28.7,0,0,1-27.32,17.05Zm0-9.92a15.61,15.61,0,0,0,10.15-3.32,20.39,20.39,0,0,0,6.19-9.09,38.46,38.46,0,0,0,2.09-13.12V446.3A38.42,38.42,0,0,0,286,433.18a20.17,20.17,0,0,0-6.22-9.09,17.39,17.39,0,0,0-20.44,0,19.88,19.88,0,0,0-6.18,9.09,38.68,38.68,0,0,0-2.07,13.12v1.41a38.72,38.72,0,0,0,2.07,13.12,19.82,19.82,0,0,0,6.22,9.09A16,16,0,0,0,269.62,473.24Z" transform="translate(-70.51 -343.96)"/><path class="cls-2" d="M344.32,483.16a28.86,28.86,0,0,1-27.46-17.11,42.26,42.26,0,0,1-3.8-18.34V446.3a42.26,42.26,0,0,1,3.8-18.34,30.06,30.06,0,0,1,10.8-12.6,32.35,32.35,0,0,1,33.19,0,30.16,30.16,0,0,1,10.8,12.57,42.32,42.32,0,0,1,3.8,18.37v1.41a42.55,42.55,0,0,1-3.8,18.4,28.72,28.72,0,0,1-27.33,17.05Zm0-9.92a15.61,15.61,0,0,0,10.15-3.32,20.39,20.39,0,0,0,6.19-9.09,38.46,38.46,0,0,0,2.09-13.12V446.3a38.42,38.42,0,0,0-2.09-13.12,20.17,20.17,0,0,0-6.22-9.09,17.39,17.39,0,0,0-20.44,0,19.88,19.88,0,0,0-6.18,9.09,38.68,38.68,0,0,0-2.07,13.12v1.41a38.72,38.72,0,0,0,2.07,13.12,19.9,19.9,0,0,0,6.22,9.09A16,16,0,0,0,344.32,473.24Z" transform="translate(-70.51 -343.96)"/><path class="cls-2" d="M383.31,481.81v-8.12l10.51-1.81V391.25l-10.51-1.8v-8.19h23.2v90.62L417,473.69v8.12Zm22.3-20.18-4.7-10,30.29-30.16.32-.39-7.47-.83v-8.19h30v8.19l-9,1.67Zm22.5,20.18v-8.12l7.09-.84-.2-.26-20.17-26,6.57-10.12,28.17,35.71,10.05,1.55v8.12Z" transform="translate(-70.51 -343.96)"/></svg>