<svg width="200" height="200" viewBox="0 0 200 200" fill="none" xmlns="http://www.w3.org/2000/svg">
<path d="M162.508 81.2381C162.508 99.1652 156.687 115.725 146.882 129.161L196.338 178.646C201.221 183.528 201.221 191.456 196.338 196.338C191.455 201.221 183.525 201.221 178.642 196.338L129.186 146.853C115.748 156.696 99.1845 162.476 81.254 162.476C36.369 162.476 0 126.114 0 81.2381C0 36.3619 36.369 0 81.254 0C126.139 0 162.508 36.3619 162.508 81.2381ZM81.254 137.48C112.31 137.48 137.507 112.288 137.507 81.2381C137.507 50.188 112.31 24.9963 81.254 24.9963C50.1978 24.9963 25.0012 50.188 25.0012 81.2381C25.0012 112.288 50.1978 137.48 81.254 137.48Z" fill="#003060"/>
</svg>
